<svg viewBox="0 0 1200 520" xmlns="http://www.w3.org/2000/svg" role="img" aria-label="KAPI vs dense+vectorDB cumulative cost over 12 months">
  <defs>
    <style>
      text{font-family:'Segoe UI',system-ui,-apple-system,Roboto,Helvetica,Arial,sans-serif}
      .ax{font-size:12px;fill:#64748b}
    </style>
  </defs>

  <rect x="0" y="0" width="1200" height="520" rx="16" fill="#ffffff" stroke="#e2e8f0"/>

  <text x="32" y="42" font-size="23" font-weight="800" fill="#0f172a">12-month cost of ownership</text>
  <text x="32" y="66" font-size="15" fill="#475569">1M docs · 1M queries/month · via <tspan font-family="monospace" fill="#0f172a">kapi tco</tspan>. Kapi pays once at compile; dense pays every query, forever.</text>

  <!-- y grid + labels -->
  <g stroke="#eef2f7" stroke-width="1">
    <line x1="90" y1="430" x2="1110" y2="430"/>
    <line x1="90" y1="340" x2="1110" y2="340"/>
    <line x1="90" y1="250" x2="1110" y2="250"/>
    <line x1="90" y1="160" x2="1110" y2="160"/>
    <line x1="90" y1="70"  x2="1110" y2="70"/>
  </g>
  <g class="ax" text-anchor="end">
    <text x="78" y="434">$0</text>
    <text x="78" y="344">$100</text>
    <text x="78" y="254">$200</text>
    <text x="78" y="164">$300</text>
    <text x="78" y="74">$400</text>
  </g>
  <g class="ax" text-anchor="middle">
    <text x="90" y="452">0</text>
    <text x="345" y="452">3</text>
    <text x="600" y="452">6</text>
    <text x="855" y="452">9</text>
    <text x="1110" y="452">12 months</text>
  </g>

  <!-- savings region (after break-even) -->
  <polygon points="475,295 1110,87 1110,295" fill="#86efac" opacity="0.35"/>

  <!-- dense: recurring bill, rising -->
  <line x1="90" y1="421" x2="1110" y2="87" stroke="#ef4444" stroke-width="3.5" stroke-linecap="round"/>
  <circle cx="1110" cy="87" r="5" fill="#ef4444"/>
  <text x="612" y="150" font-size="15" font-weight="700" fill="#dc2626">dense + vector DB</text>
  <text x="612" y="170" font-size="13" fill="#ef4444">recurring embed + resident RAM → $380 / 12 mo</text>

  <!-- kapi: flat after one-time compile -->
  <line x1="90" y1="295" x2="1110" y2="295" stroke="#7c3aed" stroke-width="3.5" stroke-linecap="round"/>
  <circle cx="90" cy="295" r="5" fill="#7c3aed"/>
  <circle cx="1110" cy="295" r="5" fill="#7c3aed"/>
  <text x="104" y="286" font-size="15" font-weight="700" fill="#6d28d9">Kapi — $150 once, then $0 / query</text>

  <!-- break-even marker -->
  <line x1="475" y1="295" x2="475" y2="430" stroke="#94a3b8" stroke-width="1.5" stroke-dasharray="4 4"/>
  <circle cx="475" cy="295" r="6" fill="#0f172a"/>
  <text x="486" y="315" font-size="13" font-weight="600" fill="#334155">break-even ≈ 4.5 months</text>

  <!-- savings callout -->
  <text x="815" y="250" font-size="16" font-weight="800" fill="#15803d">saves ≈ $231 (60%)</text>
  <text x="815" y="270" font-size="13" fill="#16a34a">and the gap widens with traffic</text>
</svg>
